<svg width="454" height="311" viewBox="0 0 454 311" fill="none" xmlns="http://www.w3.org/2000/svg">
<rect x="175.844" y="136.844" width="256.156" height="168.656" rx="20.8202" fill="#E3E6F2"/>
<rect x="68.4503" y="6.56143" width="163.512" height="152.63" rx="19.6583" fill="white" stroke="#E3E6F2" stroke-width="2.12285"/>
<ellipse cx="341.286" cy="220.912" rx="65.2081" ry="65.3282" fill="white"/>
<ellipse cx="149.694" cy="82.8191" rx="46.0788" ry="46.1637" fill="#E3E6F2"/>
<rect x="263.151" y="185.124" width="13.5341" height="67.0266" transform="rotate(90 263.151 185.124)" fill="#36349D"/>
<rect x="230.892" y="221.497" width="13.3519" height="88.6558" transform="rotate(90 230.892 221.497)" fill="#36349D" fill-opacity="0.48"/>
<ellipse cx="34.3133" cy="209.451" rx="12.3133" ry="12.336" fill="#36349D"/>
<ellipse cx="67.3419" cy="209.451" rx="12.3133" ry="12.336" fill="#36349D"/>
<ellipse cx="100.371" cy="209.451" rx="12.3133" ry="12.336" fill="#36349D"/>
<ellipse cx="292.58" cy="89.1978" rx="36.3281" ry="36.395" fill="#36349D"/>
<path d="M285.496 80.7716C285.574 81.9284 285.769 83.0593 286.08 84.1381L284.523 85.6979C283.991 84.1381 283.654 82.4873 283.537 80.7716H285.496ZM298.289 96.3954C299.392 96.7074 300.521 96.9024 301.662 96.9804V98.9171C299.95 98.8001 298.302 98.4621 296.732 97.9422L298.289 96.3954ZM286.742 78.1719H282.201C281.487 78.1719 280.904 78.7569 280.904 79.4718C280.904 91.6771 290.777 101.569 302.96 101.569C303.673 101.569 304.257 100.984 304.257 100.269V95.7325C304.257 95.0176 303.673 94.4327 302.96 94.4327C301.351 94.4327 299.781 94.1727 298.328 93.6918C298.198 93.6398 298.056 93.6268 297.926 93.6268C297.589 93.6268 297.264 93.7568 297.005 94.0038L294.15 96.8634C290.479 94.9786 287.469 91.976 285.6 88.2975L288.455 85.4379C288.818 85.074 288.922 84.5671 288.779 84.1121C288.299 82.6563 288.039 81.0965 288.039 79.4718C288.039 78.7569 287.456 78.1719 286.742 78.1719Z" fill="white"/>
<path d="M341.026 192.542C345.408 192.542 348.993 196.134 348.993 200.524C348.993 204.914 345.408 208.505 341.026 208.505C336.644 208.505 333.059 204.914 333.059 200.524C333.059 196.134 336.644 192.542 341.026 192.542ZM341.026 232.45C351.781 232.45 364.13 237.599 364.927 240.432H317.125C318.041 237.559 330.31 232.45 341.026 232.45ZM341.026 184.56C332.223 184.56 325.092 191.704 325.092 200.524C325.092 209.343 332.223 216.487 341.026 216.487C349.83 216.487 356.96 209.343 356.96 200.524C356.96 191.704 349.83 184.56 341.026 184.56ZM341.026 224.469C330.39 224.469 309.158 229.816 309.158 240.432V248.414H372.894V240.432C372.894 229.816 351.662 224.469 341.026 224.469Z" fill="#36349D"/>
<path d="M149.578 79.7957C155.82 79.7957 160.875 74.7483 160.875 68.5164C160.875 62.2846 155.82 57.2371 149.578 57.2371C143.336 57.2371 138.281 62.2846 138.281 68.5164C138.281 74.7483 143.336 79.7957 149.578 79.7957ZM149.578 85.4354C142.037 85.4354 126.983 89.214 126.983 96.7147V102.354H172.172V96.7147C172.172 89.214 157.119 85.4354 149.578 85.4354Z" fill="#7978BE"/>
</svg>
