<svg fill="none" height="83" viewBox="0 0 178 83" width="178" xmlns="http://www.w3.org/2000/svg"><g fill="#fff"><path d="m18.9375 11.7338c.036-.2973.0573-.6041.0573-.9161 0-.1719 0-.376-.0213-.6 2.6625-.0411 4.9905-1.952 4.9905-4.15627 0-1.11973-.7291-1.9624-1.1411-2.46773.0891-.02133.1823-.04266.2755-.06239.3912.33853 1.4948 1.53586 1.4948 3.05719 0 2.6396-2.6401 5.0933-5.6557 5.1453zm-2.6776-9.19729c-.0463-.29227-.1615-.55734-.3334-.78707.011-.27027.1204-.53173.5574-.31707-.2334.23854-.0574.66667-.0574.66667s.4855-.22401.3803-.54281c.7145.17187.2036 1.12561-.5469.98028zm-.6146 1.35826c-.0984-.39574-.2958-.80107-.5573-1.1088-.2333-.276-.6187-.60413-1.1453-.60413-.24 0-.6359.10933-.8906.21866-.0933-.1724-.2813-.588-.2813-.776 0-.19213.3276-.39066.9532-.39066 1.3744 0 2.1973.61986 2.1973 1.66093 0 .37093-.1453.70426-.276 1zm3.5318 17.72973c.1614 0 .239.0265.3333.0625.3964 1.0787 1.9213 3.1094 1.9844 3.1974l.0156.0161.0203-.0057c.3761-.0572 1.3292-.2026 2.1308-.2026h.0213c.0823 0 .1812 0 .2437.063.0522.0516.0787.1396.0787.2704 0 .1973-.0839.5416-.188.6869-.276-.3068-.7344-.4427-1.4573-.4427-.2198 0-.4796.0626-.6198.1l-.0573.0146-.0631.0161.4163.4224c.652.6453 1.2093 1.2027 1.2093 1.5776 0 .224-.2188.5156-.4172.6453-.0469-.6812-.7349-1.5932-1.4068-2.1041l-.0573-.0469-.0093.2453c-.0052.1615-.0214.4068-.0214.6667 0 1.2964-.136 1.4948-.5838 1.4948-.0667 0-.1708-.0214-.2391-.0464.2547-.3135.3536-.7239.3536-1.4484l-.0041-.3386-.0052-.265c0-.3027.0308-.5214.0573-.699l.0093-.0985-.0666-.0109c-.2146-.025-.6042-.0823-.9016-.0823-.6411 0-1.0786.0625-1.3906.3532-.2078-.1667-.4224-.4521-.4224-.6344 0-.2709.1667-.2975.3906-.2975.1094 0 .2146.0214.36.036.276.0427.6932.1052 1.5468.1052h.0521l-.0161-.0521c-.2188-.6197-.812-1.5213-1.7656-2.6828.0842-.3131.1666-.5156.4692-.5156zm-8.2292 3.1984-.0214.0521h.0522c.8546 0 1.2718-.0625 1.5478-.1052.1454-.0146.2495-.036.359-.036.2186 0 .3905.0266.3905.2975 0 .1823-.2135.4677-.4213.6344-.3135-.2907-.7506-.3532-1.3907-.3532-.2973 0-.6932.0573-.9015.0823l-.0318.0057-.0359.0052.0104.0985c.0255.1776.0573.3963.0573.699l-.0052.265-.0052.3386c0 .7245.0984 1.1349.3547 1.4484-.0631.025-.1719.0464-.2401.0464-.4531 0-.5839-.1984-.5839-1.4948 0-.2599-.0093-.5052-.0203-.6667l-.0156-.2453-.0521.0469c-.67186.5109-1.3588 1.4229-1.4016 2.1041-.20253-.1297-.42133-.4213-.42133-.6453 0-.3749.56307-.9323 1.2084-1.5776l.3692-.376.0532-.0464-.1256-.0307c-.14107-.0374-.39587-.1-.61973-.1-.724 0-1.17707.1359-1.45894.4427-.1036-.1453-.1864-.4896-.1864-.6869 0-.1308.02547-.2188.0776-.2704.06254-.063.16094-.063.25054-.063h.01453c.80267 0 1.76147.1454 2.1308.2026l.02653.0057.00934-.0161c.06826-.088 1.59476-2.1187 1.99066-3.1974.088-.036.1667-.0625.3281-.0625.3011 0 .3854.2025.4678.5156-.9532 1.1615-1.5464 2.0631-1.76 2.6828zm-4.12496-18.2344c0-1.52133 1.1036-2.71866 1.49426-3.05719.0948.01973.188.04106.2812.06239-.4156.50533-1.14533 1.348-1.14533 2.46773 0 2.22454 2.37507 4.15627 5.06823 4.15627-.0161.1932-.0265.3907-.0265.6 0 .3281.0156.6292.0464.9161-3.0412-.0161-5.71826-2.48437-5.71826-5.1453zm20.40626 4.6813c1.364 2.1626 2.4323 2.125 4.0468 2.125-1.3333-1.0198-2.2135-2.3334-2.6359-3.0052l-2.4948-3.98909c-.2437-1.22961-.8802-2.38014-1.8333-3.24014.3187-.11867.5896-.24947.7453-.3692-1.6256 0-3.2401-.82813-4.1308-.82813-.5666 0-.9369.34373-.9369.79213.0369.5052.5573 1.01467 1.5104 1.01467.2188 0 .4948-.0256.7973-.0776.5199.71866.9376 1.36919.9376 2.30146 0 1.75053-2.0896 3.10947-4.1989 3.10947-.1188 0-.2333-.00414-.348-.01467-.1932-.43227-.8281-1.15613-.8281-1.98533 0-1.39066.9052-2.5204.9052-3.8948 0-.85466-.4156-1.38546-.5771-1.6052.2599-.23853.5412-.536.6093-.73853-.152.067734-.328.071867-.5894.071867-1.0106 0-1.8386-.259871-2.6396-.259871-.459 0-.5787.141067-.5787.276001 0 .0464.0052.098403.0208.124933-.1719-.0676-.3333-.10933-.5265-.145197-.2334-.048-.4891-.067733-.7599-.067733-.9787 0-1.3224.4052-1.3224.75986 0 .29734.2344.83334.5 1.25054.3796-.1932.8333-.32401 1.0411-.32401.5213 0 .9786.49481 1.224 1.07867-.3495.0412-.4172.05734-.7651.05734-.9537 0-1.5989-.33854-1.7297-.33854-.0156 0-.0412.00521-.0412.02654 0 .13493.2709.48386.801.67599.699.26147 1.7511.36508 1.923.39588 0 .03226-.1776.35986-.376.42293-.0412.01453-.0719.01453-.124.0052-.7292-.14693-.9334-.20414-1.8599-.55734-.0308-.01093-.0469.0052-.0469.036 0 .364.948 1.17761 1.8016 1.48387-.7135.91187-1.599 1.83906-2.0146 3.25093-.1204.01053-.2349.01467-.3546.01467-2.1095 0-4.1975-1.35894-4.1975-3.10947 0-.93227.41561-1.5828.93694-2.30146.3016.052.5776.0776.79746.0776.9521 0 1.4735-.50947 1.5093-1.01467 0-.4484-.364-.79213-.9369-.79213-.8912 0-2.5.82813-4.12973.82813.16147.11973.42653.25053.74427.3692-.9536.86-1.588 2.01053-1.83334 3.24014l-2.4896 3.98909c-.42133.6718-1.30773 1.9854-2.641063 3.0052 1.609333 0 2.682803.0376 4.047863-2.125l1.276-2.0417c.09854.2656.21307.52134.348.7761l-2.5412 4.0682c-.42133.677-1.30146 1.9734-2.64013 3.0052 1.61467 0 2.68133.036 4.0464-2.125l2.18694-3.5c.16666.1719.33866.3438.52146.5052l-3.08813 4.9427c-.428.6771-1.29734 1.9745-2.64107 3 1.61453 0 2.68227.0412 4.0464-2.1203l3.01093-4.8172c.1984.1255.40094.2454.61454.3599l-3.6776 5.8855c-.42134.6718-1.29587 1.9625-2.64014 3 1.61507 0 2.6828.0358 4.05214-2.1199l3.78116-6.0572c.2246.0823.4536.1667.6828.2385l-4.27596 6.8438c-.4172.6666-1.31307 1.9854-2.636 3 1.60946 0 2.6828.0374 4.04173-2.1199l4.55733-7.2905c.0463.0052.0932.0093.1411.0197.124.3964.2078.7667.2078 1.1308 0 2.2921-1.5 4.3172-3.3078 5.8801.1146.0464.3188.0678.5.0678.376 0 .6146-.0214.7865-.0522-.4215.9538-1.3172 2.183-1.7704 2.812-.59373-.1036-1.4536-.1864-2.01613-.1864-.588 0-.65627.3427-.65627.6506 0 .5358.25107.964.54174 1.1973.10933-.2703.3292-.6344 1.4172-.6344.02133 0 .0624 0 .10933.0052-.3172.3532-1.312 1.1557-1.312 1.8068 0 .4265.46827 1.0729 1.0932 1.0729-.03587-.141-.03587-.265-.03587-.365 0-.5199.46827-1.135.8588-1.5667-.01093.1292-.00573.1145-.00573.2651 0 1.239.1152 1.8125.90163 1.8125.3854 0 .6505-.2136.7453-.276-.5104-.4735-.5375-.8443-.5375-1.5365 0-.1823 0-.3599.0058-.6036 0-.1615-.0058-.3708-.0256-.5266.2813-.0365.3958-.0365.6093-.0365 0 0 1.1199-.0891 1.3907.4948.3016-.2812.7437-.6719.7437-1.1036 0-.2871-.1344-.6152-.7129-.6152-.2188 0-.9068.1349-1.4787.1349.1557-.3426.8437-1.3478 1.4369-2.0776.088.2818.2298.588.5418.8391.0462-.4692.3172-1.9536 1.052-2.8229.089.588.2026 1.187.2026 2.4573 0 3.0844-.7442 5.3656-2.3172 5.7973.2036.359.6411.6776 1.0891.6776.5719 0 .8907-.652 1.2077-1.2656.1667.4522.6256 1.5667 1.0882 1.5667.464 0 .9228-1.1145 1.0894-1.5667.3172.6136.6344 1.2656 1.2079 1.2656.4536 0 .8855-.3186 1.088-.6776-1.5719-.4317-2.3172-2.7129-2.3172-5.7973 0-1.2703.1147-1.8693.2027-2.4573.7349.8693 1.0109 2.3537 1.052 2.8229.313-.2511.4532-.5573.5428-.8391.5932.7298 1.2812 1.735 1.4369 2.0776-.5729 0-1.2609-.1349-1.4797-.1349-.5776 0-.7135.3281-.7135.6152 0 .4317.4427.8224.7453 1.1036.2708-.5839 1.3906-.4948 1.3906-.4948.2188 0 .3333 0 .6152.0365-.0271.1558-.0323.3651-.0271.5266v.6036c0 .6922-.0251 1.063-.536 1.5365.0932.0624.3588.276.7443.276.7865 0 .901-.5735.901-1.8125 0-.1506.0058-.1359-.0052-.2651.3907.4317.8599 1.0468.8599 1.5667 0 .1.0052.224-.0359.365.6239 0 1.0932-.6464 1.0932-1.0729 0-.6511-.9942-1.4536-1.312-1.8068.0522-.0052.088-.0052.1094-.0052 1.088 0 1.3068.3641 1.4161.6344.2923-.2333.5412-.6615.5412-1.1973 0-.3079-.0667-.6506-.6557-.6506-.5631 0-1.4214.0828-2.0162.1864-.4521-.629-1.348-1.8582-1.7708-2.812.1724.0308.4119.0522.787.0522.188 0 .3854-.0214.5-.0678-1.8016-1.5629-3.3068-3.588-3.3068-5.8801 0-.3641.0828-.7344.2078-1.1308.0468-.0104.0938-.0145.1402-.0197l4.5572 7.2905c1.3656 2.1573 2.4333 2.1199 4.0469 2.1199-1.3281-1.0146-2.2229-2.3334-2.6401-3l-4.276-6.8438c.2348-.0718.4588-.1562.6828-.2385l3.7864 6.0572c1.3641 2.1557 2.4322 2.1199 4.0469 2.1199-1.3443-1.0375-2.2136-2.3282-2.6417-3l-3.6719-5.8855c.2095-.1145.412-.2344.6095-.3599l3.0109 4.8172c1.3651 2.1615 2.4317 2.1203 4.0463 2.1203-1.3438-1.0255-2.213-2.3229-2.6402-3l-3.089-4.9427c.1829-.1614.3548-.3333.5162-.5052l2.1932 3.5c1.364 2.161 2.4318 2.125 4.0463 2.125-1.3385-1.0318-2.2129-2.3282-2.6411-3.0052l-2.5412-4.0682c.136-.25476.2558-.5105.349-.7761z"/><path d="m39.3745 28.6766h4.6667v-26.66663h-4.6667z"/><path d="m39.3745 32.01h4.6667v-1.6667h-4.6667z"/><path d="m39.3745 35.3434h4.6667v-1.6667h-4.6667z"/><path d="m39.3745 38.6766h4.6667v-1.6666h-4.6667z"/><path d="m39.3745 42.01h4.6667v-1.6667h-4.6667z"/><path d="m39.3745 45.3434h4.6667v-1.6667h-4.6667z"/><path d="m39.3745 48.6766h4.6667v-1.6666h-4.6667z"/><path d="m39.3745 52.01h4.6667v-1.6667h-4.6667z"/><path d="m39.3745 55.3434h4.6667v-1.6667h-4.6667z"/><path d="m39.3745 82.01h4.6667v-.5h-4.6667z"/><path d="m39.3745 79.3434h4.6667v-.5h-4.6667z"/><path d="m39.3745 76.6766h4.6667v-.5h-4.6667z"/><path d="m39.3745 74.01h4.6667v-.5h-4.6667z"/><path d="m39.3745 71.3434h4.6667v-.5h-4.6667z"/><path d="m39.3745 68.6766h4.6667v-.5h-4.6667z"/><path d="m39.3745 66.01h4.6667v-.5h-4.6667z"/><path d="m39.3745 63.3434h4.6667v-.5h-4.6667z"/><path d="m39.3745 60.6766h4.6667v-.5h-4.6667z"/><path d="m39.3745 58.01h4.6667v-.5h-4.6667z"/><path d="m60.4341 4.43911c0-1.712-1.04-2.816-3.664-2.816h-2.128v11.03999h2.256c2.64 0 3.824-1.264 3.824-2.99199 0-1.472-.944-2.432-2.08-2.656v-.032c.96-.256 1.792-1.008 1.792-2.544zm-1.408.048c0 1.264-.784 2.048-2.272 2.048h-.72v-3.808h.736c1.552 0 2.256.752 2.256 1.76zm.208 5.088c0 1.26399-.704 1.93599-2.336 1.93599h-.864v-3.87199h.944c1.44 0 2.256.752 2.256 1.936zm7.36 2.22399h.032v.864h1.184v-7.67999h-1.296v5.87199c-.256.32-.768.848-1.552.848-.864 0-1.28-.512-1.28-1.77599v-4.944h-1.296v5.03999c0 2.08.848 2.832 2.208 2.832 1.168 0 1.856-.784 2-1.056zm6.064-5.90399c.896 0 1.328.528 1.328 1.824v4.94399h1.296v-5.03999c0-2.08-.864-2.832-2.24-2.832-1.2 0-1.888.784-2.032 1.056h-.032v-.864h-1.184v7.67999h1.296v-5.91999c.256-.32.784-.848 1.568-.848zm7.248 5.80799c-.896 0-1.696-.704-1.696-2.81599 0-2.176.9439-2.944 2.1439-2.944.464 0 .7681.128.9921.272v4.73599c-.176.256-.624.752-1.44.752zm1.52.144h.032v.816h1.184v-11.45599l-1.296.144v3.68c-.24-.096-.592-.192-1.088-.192-1.632 0-3.392.992-3.392 4.096 0 2.79999 1.232 3.91999 2.688 3.91999 1.216 0 1.728-.768 1.872-1.008zm5.6959-5.99999c.816 0 1.248.624 1.248 1.68 0 .24-.016.448-.032.56h-2.784c.064-1.44.656-2.24 1.568-2.24zm2.592 6.09599-.48-.912c-.176.176-.704.672-1.616.672-1.296 0-2-.848-2.08-2.63998h3.92c.048-.368.096-.83201.096-1.48801 0-1.84-.896-2.784-2.352-2.784-1.6 0-2.928 1.216-2.928 3.936 0 2.89599 1.216 4.12799 3.152 4.12799 1.456 0 2.08-.688 2.288-.912zm5.44-6.33599c-.256-.256-.768-.816-1.952-.816-1.248 0-2.224.848-2.224 1.984 0 1.056.576 1.68001 1.536 2.28801l.48.30399c.736.464 1.12.71999 1.12 1.45599 0 .496-.416.88-1.184.88-.832 0-1.312-.496-1.552-.752l-.624 1.024c.304.32.928.88 2.16.88 1.568 0 2.448-.944 2.448-2.16 0-1.13598-.64-1.75999-1.68-2.38399l-.48-.288c-.688-.416-1.008-.736-1.008-1.312 0-.448.368-.816 1.056-.816.72 0 1.168.448 1.344.64zm4.608.336c.8 0 1.152.528 1.152 1.776v4.94399h1.296v-5.15199c0-.288-.016-.56-.064-.8.288-.336.768-.768 1.472-.768.864 0 1.328.528 1.328 1.776v4.94399h1.296v-5.15199c0-1.824-.8-2.72-2.336-2.72-.992 0-1.696.592-2.032 1.024-.352-.688-.992-1.024-1.856-1.024-1.056 0-1.712.704-1.92 1.056h-.032v-.864h-1.184v7.67999h1.296v-5.91999c.224-.272.72-.8 1.584-.8zm9.072-2.816c.512 0 .864-.384.864-.928 0-.528-.352-.912-.864-.912-.528 0-.88.384-.88.912 0 .544.352.928.88.928zm.64 1.856h-1.296v7.67999h1.296zm4.848.912c.896 0 1.328.528 1.328 1.824v4.94399h1.296v-5.03999c0-2.08-.864-2.832-2.24-2.832-1.2 0-1.888.784-2.032 1.056h-.032v-.864h-1.184v7.67999h1.296v-5.91999c.256-.32.784-.848 1.568-.848zm5.216-2.768c.512 0 .864-.384.864-.928 0-.528-.352-.912-.864-.912-.528 0-.88.384-.88.912 0 .544.352.928.88.928zm.64 1.856h-1.296v7.67999h1.296zm5.856.624c-.256-.256-.768-.816-1.952-.816-1.248 0-2.224.848-2.224 1.984 0 1.056.576 1.68001 1.536 2.28801l.48.30399c.736.464 1.12.71999 1.12 1.45599 0 .496-.416.88-1.184.88-.832 0-1.312-.496-1.552-.752l-.624 1.024c.304.32.928.88 2.16.88 1.568 0 2.448-.944 2.448-2.16 0-1.13598-.64-1.75999-1.68-2.38399l-.48-.288c-.688-.416-1.008-.736-1.008-1.312 0-.448.368-.816 1.056-.816.72 0 1.168.448 1.344.64zm5.216 6.91199-.176-1.04c-.128.08-.416.224-.8.224-.656 0-.912-.32-.912-1.408v-4.25599h1.68l.16-1.056h-1.84v-2.144h-1.152l-.144 2.144-.928.192v.864h.928v4.43199c0 1.696.672 2.384 1.984 2.384.688 0 1.088-.256 1.2-.336zm3.648-6.67199c.816 0 1.248.624 1.248 1.68 0 .24-.016.448-.032.56h-2.784c.064-1.44.656-2.24 1.568-2.24zm2.592 6.09599-.48-.912c-.176.176-.704.672-1.616.672-1.296 0-2-.848-2.08-2.63998h3.92c.048-.368.096-.83201.096-1.48801 0-1.84-.896-2.784-2.352-2.784-1.6 0-2.928 1.216-2.928 3.936 0 2.89599 1.216 4.12799 3.152 4.12799 1.456 0 2.08-.688 2.288-.912zm5.104-6.97599c-.128-.048-.336-.128-.704-.128-.976 0-1.392.576-1.616 1.184h-.032v-1.04h-1.184v7.67999h1.296v-5.63199c.192-.512.624-1.04 1.44-1.04.352 0 .576.096.64.128zm1.776-1.84c.512 0 .864-.384.864-.928 0-.528-.352-.912-.864-.912-.528 0-.88.384-.88.912 0 .544.352.928.88.928zm.64 1.856h-1.296v7.67999h1.296zm6.144 6.81599h.032v.864h1.184v-7.67999h-1.296v5.87199c-.256.32-.768.848-1.552.848-.864 0-1.28-.512-1.28-1.77599v-4.944h-1.296v5.03999c0 2.08.848 2.832 2.208 2.832 1.168 0 1.856-.784 2-1.056zm6.08-5.85599c.8 0 1.152.528 1.152 1.776v4.94399h1.296v-5.15199c0-.288-.016-.56-.064-.8.288-.336.768-.768 1.472-.768.864 0 1.328.528 1.328 1.776v4.94399h1.296v-5.15199c0-1.824-.8-2.72-2.336-2.72-.992 0-1.696.592-2.032 1.024-.352-.688-.992-1.024-1.856-1.024-1.056 0-1.712.704-1.92 1.056h-.032v-.864h-1.184v7.67999h1.296v-5.91999c.224-.272.72-.8 1.584-.8z"/><path d="m57.6021 22.0391.16-1.056h-1.728v-1.376c0-1.008.336-1.344.944-1.344.336 0 .576.128.704.208l.272-1.072c-.128-.08-.544-.288-1.088-.288-1.136 0-2.128.672-2.128 2.352v1.536l-.928.176v.864h.928v6.624h1.296v-6.624zm5.936-3.264c0-.496-.336-.816-.768-.816s-.768.32-.768.816.336.816.768.816.768-.32.768-.816zm-2.464 0c0-.496-.336-.816-.768-.816s-.768.32-.768.816.336.816.768.816.768-.32.768-.816zm1.968 9.024h.032v.864h1.184v-7.68h-1.296v5.872c-.256.32-.768.848-1.552.848-.864 0-1.28-.512-1.28-1.776v-4.944h-1.296v5.04c0 2.08.848 2.832 2.208 2.832 1.168 0 1.856-.784 2-1.056zm6.7359-6.832c-.128-.048-.336-.128-.704-.128-.976 0-1.392.576-1.616 1.184h-.032v-1.04h-1.184v7.68h1.296v-5.632c.192-.512.624-1.04 1.44-1.04.352 0 .576.096.64.128zm6.336 7.696c3.376 0 5.472-1.744 5.472-5.792 0-3.792-1.712-5.248-5.312-5.248h-2.08v11.04zm.16-9.936c2.448 0 3.824 1.024 3.824 4.144 0 3.376-1.44 4.64-3.984 4.64h-.528v-8.784zm7.712.4c.512 0 .864-.384.864-.928 0-.528-.352-.912-.864-.912-.528 0-.88.384-.88.912 0 .544.352.928.88.928zm.64 1.856h-1.296v7.68h1.296zm5.632 2.384c0 1.104-.608 1.536-1.344 1.536-.704 0-1.328-.432-1.328-1.536s.624-1.536 1.36-1.536c.704 0 1.312.432 1.312 1.536zm1.888 5.888c0-1.456-1.088-2.032-2.544-2.032h-.976c-.56 0-.784-.224-.784-.544 0-.4.368-.608.624-.72.128.016.256.016.4.016 1.504 0 2.656-.976 2.656-2.608 0-.512-.128-.992-.368-1.376h.96l.176-1.008h-2.336c-.32-.128-.656-.192-1.024-.192-1.44 0-2.608.848-2.608 2.576 0 1.216.528 1.984 1.312 2.352v.032c-.192.096-.928.416-.928 1.248 0 .48.176.832.496 1.072v.032c-.352.192-1.28.736-1.28 1.872 0 1.328.88 2.08 2.512 2.08 2.272 0 3.712-1.152 3.712-2.8zm-3.616 1.696c-.912 0-1.36-.416-1.36-1.232 0-.768.416-1.136.784-1.344.176.032.384.048.592.048h.976c.784 0 1.296.288 1.296 1.024 0 .784-.72 1.504-2.288 1.504zm5.712-11.824c.512 0 .864-.384.864-.928 0-.528-.352-.912-.864-.912-.528 0-.88.384-.88.912 0 .544.352.928.88.928zm.64 1.856h-1.296v7.68h1.296zm5.472 7.536-.176-1.04c-.128.08-.416.224-.8.224-.656 0-.912-.32-.912-1.408v-4.256h1.68l.16-1.056h-1.84v-2.144h-1.152l-.144 2.144-.928.192v.864h.928v4.432c0 1.696.672 2.384 1.984 2.384.688 0 1.088-.256 1.2-.336zm4.416-4.176h-.4c-1.744 0-3.2.592-3.2 2.368 0 1.248.88 2.144 2.048 2.144.976 0 1.44-.656 1.616-1.04h.032c.016.384.032.624.048.848h1.232c-.032-.208-.096-.944-.096-1.6v-3.504c0-1.936-.832-2.768-2.4-2.768-1.232 0-1.968.592-2.304.928l.544.864c.288-.256.8-.688 1.568-.688.832 0 1.312.416 1.312 1.712zm0 .96v1.696c-.16.24-.528.752-1.28.752-.64 0-1.024-.4-1.024-1.184 0-.848.656-1.2 1.888-1.248zm4.512-8.096-1.296.144v9.632c0 1.36.592 1.824 1.456 1.824.576 0 .912-.144 1.04-.208l-.112-.96c-.08.032-.24.096-.48.096-.448 0-.608-.224-.608-.864zm4.864 4.64c.816 0 1.248.624 1.248 1.68 0 .24-.016.448-.032.56h-2.784c.064-1.44.656-2.24 1.568-2.24zm2.592 6.096-.48-.912c-.176.176-.704.672-1.616.672-1.296 0-2-.848-2.08-2.64h3.92c.048-.368.096-.832.096-1.488 0-1.84-.896-2.784-2.352-2.784-1.6 0-2.928 1.216-2.928 3.936 0 2.896 1.216 4.128 3.152 4.128 1.456 0 2.08-.688 2.288-.912zm5.44-6.336c-.256-.256-.768-.816-1.952-.816-1.248 0-2.224.848-2.224 1.984 0 1.056.576 1.68 1.536 2.288l.48.304c.736.464 1.12.72 1.12 1.456 0 .496-.416.88-1.184.88-.832 0-1.312-.496-1.552-.752l-.624 1.024c.304.32.928.88 2.16.88 1.568 0 2.448-.944 2.448-2.16 0-1.136-.64-1.76-1.68-2.384l-.48-.288c-.688-.416-1.008-.736-1.008-1.312 0-.448.368-.816 1.056-.816.72 0 1.168.448 1.344.64zm9.28 6.192h.032v.864h1.184v-7.68h-1.296v5.872c-.256.32-.768.848-1.552.848-.864 0-1.28-.512-1.28-1.776v-4.944h-1.296v5.04c0 2.08.848 2.832 2.208 2.832 1.168 0 1.856-.784 2-1.056zm6.064-5.904c.896 0 1.328.528 1.328 1.824v4.944h1.296v-5.04c0-2.08-.864-2.832-2.24-2.832-1.2 0-1.888.784-2.032 1.056h-.032v-.864h-1.184v7.68h1.296v-5.92c.256-.32.784-.848 1.568-.848zm7.248 5.808c-.896 0-1.696-.704-1.696-2.816 0-2.176.944-2.944 2.144-2.944.464 0 .768.128.992.272v4.736c-.176.256-.624.752-1.44.752zm1.52.144h.032v.816h1.184v-11.456l-1.296.144v3.68c-.24-.096-.592-.192-1.088-.192-1.632 0-3.392.992-3.392 4.096 0 2.8 1.232 3.92 2.688 3.92 1.216 0 1.728-.768 1.872-1.008z"/><path d="m59.394 34.2631c-.24-.192-.944-.832-2.416-.832-1.728 0-2.832 1.088-2.832 2.512 0 1.52.704 2.256 1.92 3.28l.896.752c.928.784 1.376 1.296 1.376 2.256 0 .752-.608 1.376-1.696 1.376-1.136 0-1.872-.704-2.144-.96l-.56 1.216c.32.288 1.152.992 2.736.992 1.984 0 3.072-1.136 3.072-2.816 0-1.44-.816-2.304-1.856-3.168l-.896-.736c-1.008-.816-1.472-1.36-1.472-2.224 0-.688.496-1.28 1.456-1.28 1.024 0 1.664.512 1.84.688zm5.2639 10.256-.176-1.04c-.128.08-.416.224-.8.224-.656 0-.912-.32-.912-1.408v-4.256h1.68l.16-1.056h-1.84v-2.144h-1.152l-.144 2.144-.928.192v.864h.928v4.432c0 1.696.672 2.384 1.984 2.384.688 0 1.088-.256 1.2-.336zm4.416-4.176h-.4c-1.744 0-3.2.592-3.2 2.368 0 1.248.88 2.144 2.048 2.144.976 0 1.44-.656 1.616-1.04h.032c.016.384.032.624.048.848h1.232c-.032-.208-.096-.944-.096-1.6v-3.504c0-1.936-.832-2.768-2.4-2.768-1.232 0-1.968.592-2.304.928l.544.864c.288-.256.8-.688 1.568-.688.832 0 1.312.416 1.312 1.712zm0 .96v1.696c-.16.24-.528.752-1.28.752-.64 0-1.024-.4-1.024-1.184 0-.848.656-1.2 1.888-1.248zm6.384-.96h-.4c-1.744 0-3.2.592-3.2 2.368 0 1.248.88 2.144 2.048 2.144.976 0 1.44-.656 1.616-1.04h.032c.016.384.032.624.048.848h1.232c-.032-.208-.096-.944-.096-1.6v-3.504c0-1.936-.832-2.768-2.4-2.768-1.232 0-1.968.592-2.304.928l.544.864c.288-.256.8-.688 1.568-.688.832 0 1.312.416 1.312 1.712zm0 .96v1.696c-.16.24-.528.752-1.28.752-.64 0-1.024-.4-1.024-1.184 0-.848.656-1.2 1.888-1.248zm6.72 3.216-.176-1.04c-.128.08-.416.224-.8.224-.656 0-.912-.32-.912-1.408v-4.256h1.68l.16-1.056h-1.84v-2.144h-1.152l-.144 2.144-.928.192v.864h.928v4.432c0 1.696.672 2.384 1.984 2.384.688 0 1.088-.256 1.2-.336zm5.136-6.912c-.256-.256-.768-.816-1.952-.816-1.248 0-2.224.848-2.224 1.984 0 1.056.576 1.68 1.536 2.288l.48.304c.736.464 1.12.72 1.12 1.456 0 .496-.416.88-1.184.88-.832 0-1.312-.496-1.552-.752l-.624 1.024c.304.32.928.88 2.16.88 1.568 0 2.448-.944 2.448-2.16 0-1.136-.64-1.76-1.68-2.384l-.48-.288c-.688-.416-1.008-.736-1.008-1.312 0-.448.368-.816 1.056-.816.72 0 1.168.448 1.344.64zm4.6079.336c.8 0 1.152.528 1.152 1.776v4.944h1.296v-5.152c0-.288-.016-.56-.064-.8.288-.336.768-.768 1.472-.768.864 0 1.328.528 1.328 1.776v4.944h1.296v-5.152c0-1.824-.8-2.72-2.336-2.72-.992 0-1.696.592-2.032 1.024-.352-.688-.992-1.024-1.856-1.024-1.056 0-1.712.704-1.92 1.056h-.032v-.864h-1.184v7.68h1.296v-5.92c.224-.272.72-.8 1.584-.8zm8.064 2.88c0 2.88 1.2962 4.032 2.9922 4.032 1.68 0 3.072-1.168 3.072-4.032 0-2.832-1.296-4.032-2.992-4.032-1.648 0-3.0722 1.2-3.0722 4.032zm4.7202 0c0 2.032-.624 2.88-1.68 2.88s-1.696-.848-1.696-2.88.624-2.928 1.68-2.928 1.696.896 1.696 2.928zm5.664 2.88c-.896 0-1.696-.704-1.696-2.816 0-2.176.944-2.944 2.144-2.944.464 0 .768.128.992.272v4.736c-.176.256-.624.752-1.44.752zm1.52.144h.032v.816h1.184v-11.456l-1.296.144v3.68c-.24-.096-.592-.192-1.088-.192-1.632 0-3.392.992-3.392 4.096 0 2.8 1.232 3.92 2.688 3.92 1.216 0 1.728-.768 1.872-1.008zm5.696-6c.816 0 1.248.624 1.248 1.68 0 .24-.016.448-.032.56h-2.784c.064-1.44.656-2.24 1.568-2.24zm2.592 6.096-.48-.912c-.176.176-.704.672-1.616.672-1.296 0-2-.848-2.08-2.64h3.92c.048-.368.096-.832.096-1.488 0-1.84-.896-2.784-2.352-2.784-1.6 0-2.928 1.216-2.928 3.936 0 2.896 1.216 4.128 3.152 4.128 1.456 0 2.08-.688 2.288-.912zm5.104-6.976c-.128-.048-.336-.128-.704-.128-.976 0-1.392.576-1.616 1.184h-.032v-1.04h-1.184v7.68h1.296v-5.632c.192-.512.624-1.04 1.44-1.04.352 0 .576.096.64.128zm3.984.928c.896 0 1.328.528 1.328 1.824v4.944h1.296v-5.04c0-2.08-.864-2.832-2.24-2.832-1.2 0-1.888.784-2.032 1.056h-.032v-.864h-1.184v7.68h1.296v-5.92c.256-.32.784-.848 1.568-.848zm5.216-2.768c.512 0 .864-.384.864-.928 0-.528-.352-.912-.864-.912-.528 0-.88.384-.88.912 0 .544.352.928.88.928zm.64 1.856h-1.296v7.68h1.296zm5.856.624c-.256-.256-.768-.816-1.952-.816-1.248 0-2.224.848-2.224 1.984 0 1.056.576 1.68 1.536 2.288l.48.304c.736.464 1.12.72 1.12 1.456 0 .496-.416.88-1.184.88-.832 0-1.312-.496-1.552-.752l-.624 1.024c.304.32.928.88 2.16.88 1.568 0 2.448-.944 2.448-2.16 0-1.136-.64-1.76-1.68-2.384l-.48-.288c-.688-.416-1.008-.736-1.008-1.312 0-.448.368-.816 1.056-.816.72 0 1.168.448 1.344.64zm2.384-2.48c.512 0 .864-.384.864-.928 0-.528-.352-.912-.864-.912-.528 0-.88.384-.88.912 0 .544.352.928.88.928zm.64 1.856h-1.296v7.68h1.296zm4.48.864c.816 0 1.248.624 1.248 1.68 0 .24-.016.448-.032.56h-2.784c.064-1.44.656-2.24 1.568-2.24zm2.592 6.096-.48-.912c-.176.176-.704.672-1.616.672-1.296 0-2-.848-2.08-2.64h3.92c.048-.368.096-.832.096-1.488 0-1.84-.896-2.784-2.352-2.784-1.6 0-2.928 1.216-2.928 3.936 0 2.896 1.216 4.128 3.152 4.128 1.456 0 2.08-.688 2.288-.912zm5.104-6.976c-.128-.048-.336-.128-.704-.128-.976 0-1.392.576-1.616 1.184h-.032v-1.04h-1.184v7.68h1.296v-5.632c.192-.512.624-1.04 1.44-1.04.352 0 .576.096.64.128zm5.28 6.832h.032v.864h1.184v-7.68h-1.296v5.872c-.256.32-.768.848-1.552.848-.864 0-1.28-.512-1.28-1.776v-4.944h-1.296v5.04c0 2.08.848 2.832 2.208 2.832 1.168 0 1.856-.784 2-1.056zm6.064-5.904c.896 0 1.328.528 1.328 1.824v4.944h1.296v-5.04c0-2.08-.864-2.832-2.24-2.832-1.2 0-1.888.784-2.032 1.056h-.032v-.864h-1.184v7.68h1.296v-5.92c.256-.32.784-.848 1.568-.848zm8.208 1.472c0 1.104-.608 1.536-1.344 1.536-.704 0-1.328-.432-1.328-1.536s.624-1.536 1.36-1.536c.704 0 1.312.432 1.312 1.536zm1.888 5.888c0-1.456-1.088-2.032-2.544-2.032h-.976c-.56 0-.784-.224-.784-.544 0-.4.368-.608.624-.72.128.016.256.016.4.016 1.504 0 2.656-.976 2.656-2.608 0-.512-.128-.992-.368-1.376h.96l.176-1.008h-2.336c-.32-.128-.656-.192-1.024-.192-1.44 0-2.608.848-2.608 2.576 0 1.216.528 1.984 1.312 2.352v.032c-.192.096-.928.416-.928 1.248 0 .48.176.832.496 1.072v.032c-.352.192-1.28.736-1.28 1.872 0 1.328.88 2.08 2.512 2.08 2.272 0 3.712-1.152 3.712-2.8zm-3.616 1.696c-.912 0-1.36-.416-1.36-1.232 0-.768.416-1.136.784-1.344.176.032.384.048.592.048h.976c.784 0 1.296.288 1.296 1.024 0 .784-.72 1.504-2.288 1.504z"/></g></svg>