<svg fill="none" height="82" viewBox="0 0 178 82" width="178" xmlns="http://www.w3.org/2000/svg"><path d="m39.2358 54.6666h4.6667v26.6667h-4.6667z" fill="#fc0"/><path d="m39.2358 28h4.6667v26.6667h-4.6667z" fill="#f00"/><g fill="#000"><path d="m39.2358 1.33331h4.6667v26.66669h-4.6667z"/><path d="m60.292 3.75995c0-1.712-1.04-2.815996-3.664-2.815996h-2.128v11.040046h2.256c2.64 0 3.824-1.264 3.824-2.99205 0-1.472-.944-2.432-2.08-2.656v-.032c.96-.256 1.792-1.008 1.792-2.544zm-1.408.048c0 1.264-.784 2.048-2.272 2.048h-.72v-3.808h.736c1.552 0 2.256.752 2.256 1.76zm.208 5.088c0 1.26405-.704 1.93605-2.336 1.93605h-.864v-3.87205h.944c1.44 0 2.256.752 2.256 1.936zm7.36 2.22405h.032v.864h1.184v-7.68005h-1.296v5.87205c-.256.32-.768.848-1.552.848-.864 0-1.28-.512-1.28-1.77605v-4.944h-1.296v5.04c0 2.08005.848 2.83205 2.208 2.83205 1.168 0 1.856-.784 2-1.056zm6.064-5.90405c.896 0 1.328.528 1.328 1.824v4.94405h1.296v-5.04005c0-2.08-.864-2.832-2.24-2.832-1.2 0-1.888.784-2.032 1.056h-.032v-.864h-1.184v7.68005h1.296v-5.92005c.256-.32.784-.848 1.568-.848zm7.248 5.80805c-.896 0-1.696-.704-1.696-2.81605 0-2.176.944-2.944 2.144-2.944.464 0 .768.128.992.272v4.73605c-.176.256-.624.752-1.44.752zm1.52.144h.032v.816h1.184v-11.456046l-1.296.144v3.679996c-.24-.096-.592-.192-1.088-.192-1.632 0-3.392.992-3.392 4.096 0 2.80005 1.232 3.92005 2.688 3.92005 1.216 0 1.728-.768 1.872-1.008zm5.6959-6.00005c.816 0 1.2481.624 1.2481 1.68 0 .24-.016.448-.032.56h-2.784c.064-1.44.6559-2.24 1.5679-2.24zm2.5921 6.09605-.4801-.912c-.176.176-.7039.672-1.6159.672-1.296 0-2-.848-2.08-2.64005h3.92c.048-.368.096-.832.096-1.488 0-1.84-.896-2.784-2.352-2.784-1.6 0-2.928 1.216-2.928 3.936 0 2.89605 1.216 4.12805 3.152 4.12805 1.456 0 2.08-.688 2.288-.912zm5.4399-6.33605c-.256-.256-.768-.816-1.952-.816-1.248 0-2.224.848-2.224 1.984 0 1.056.576 1.68 1.536 2.288l.48.304c.736.464 1.12.72 1.12 1.45605 0 .496-.416.88-1.184.88-.832 0-1.312-.496-1.552-.752l-.624 1.024c.304.32.928.88 2.16.88 1.568 0 2.448-.944 2.448-2.16 0-1.13605-.64-1.76005-1.68-2.38405l-.48-.288c-.688-.416-1.008-.736-1.008-1.312 0-.448.368-.816 1.056-.816.72 0 1.168.448 1.344.64zm4.608.336c.8001 0 1.1521.528 1.1521 1.776v4.94405h1.296v-5.15205c0-.288-.016-.56-.064-.8.288-.336.768-.768 1.472-.768.864 0 1.328.528 1.328 1.776v4.94405h1.296v-5.15205c0-1.824-.8-2.72-2.336-2.72-.992 0-1.696.592-2.032 1.024-.352-.688-.992-1.024-1.8561-1.024-1.056 0-1.712.704-1.92 1.056h-.032v-.864h-1.184v7.68005h1.296v-5.92005c.224-.272.72-.8 1.584-.8zm9.0721-2.816c.512 0 .864-.384.864-.928 0-.527996-.352-.911995-.864-.911995-.528 0-.88.383999-.88.911995 0 .544.352.928.88.928zm.64 1.856h-1.296v7.68005h1.296zm4.848.912c.896 0 1.328.528 1.328 1.824v4.94405h1.296v-5.04005c0-2.08-.864-2.832-2.24-2.832-1.2 0-1.888.784-2.032 1.056h-.032v-.864h-1.184v7.68005h1.296v-5.92005c.256-.32.784-.848 1.568-.848zm5.216-2.768c.512 0 .864-.384.864-.928 0-.527996-.352-.911995-.864-.911995-.528 0-.88.383999-.88.911995 0 .544.352.928.88.928zm.64 1.856h-1.296v7.68005h1.296zm5.856.624c-.256-.256-.768-.816-1.952-.816-1.248 0-2.224.848-2.224 1.984 0 1.056.576 1.68 1.536 2.288l.48.304c.736.464 1.12.72 1.12 1.45605 0 .496-.416.88-1.184.88-.832 0-1.312-.496-1.552-.752l-.624 1.024c.304.32.928.88 2.16.88 1.568 0 2.448-.944 2.448-2.16 0-1.13605-.64-1.76005-1.68-2.38405l-.48-.288c-.688-.416-1.008-.736-1.008-1.312 0-.448.368-.816 1.056-.816.72 0 1.168.448 1.344.64zm5.216 6.91205-.176-1.04c-.128.08-.416.224-.8.224-.656 0-.912-.32-.912-1.40805v-4.256h1.68l.16-1.056h-1.84v-2.144h-1.152l-.144 2.144-.928.192v.864h.928v4.432c0 1.69605.672 2.38405 1.984 2.38405.688 0 1.088-.256 1.2-.336zm3.648-6.67205c.816 0 1.248.624 1.248 1.68 0 .24-.016.448-.032.56h-2.784c.064-1.44.656-2.24 1.568-2.24zm2.592 6.09605-.48-.912c-.176.176-.704.672-1.616.672-1.296 0-2-.848-2.08-2.64005h3.92c.048-.368.096-.832.096-1.488 0-1.84-.896-2.784-2.352-2.784-1.6 0-2.928 1.216-2.928 3.936 0 2.89605 1.216 4.12805 3.152 4.12805 1.456 0 2.08-.688 2.288-.912zm5.104-6.97605c-.128-.048-.336-.128-.704-.128-.976 0-1.392.576-1.616 1.184h-.032v-1.04h-1.184v7.68005h1.296v-5.63205c.192-.512.624-1.04 1.44-1.04.352 0 .576.096.64.128zm1.776-1.84c.512 0 .864-.384.864-.928 0-.527996-.352-.911995-.864-.911995-.528 0-.88.383999-.88.911995 0 .544.352.928.88.928zm.64 1.856h-1.296v7.68005h1.296zm6.144 6.81605h.032v.864h1.184v-7.68005h-1.296v5.87205c-.256.32-.768.848-1.552.848-.864 0-1.28-.512-1.28-1.77605v-4.944h-1.296v5.04c0 2.08005.848 2.83205 2.208 2.83205 1.168 0 1.856-.784 2-1.056zm6.08-5.85605c.8 0 1.152.528 1.152 1.776v4.94405h1.296v-5.15205c0-.288-.016-.56-.064-.8.288-.336.768-.768 1.472-.768.864 0 1.328.528 1.328 1.776v4.94405h1.296v-5.15205c0-1.824-.8-2.72-2.336-2.72-.992 0-1.696.592-2.032 1.024-.352-.688-.992-1.024-1.856-1.024-1.056 0-1.712.704-1.92 1.056h-.032v-.864h-1.184v7.68005h1.296v-5.92005c.224-.272.72-.8 1.584-.8z"/><path d="m57.46 21.3599.16-1.056h-1.728v-1.376c0-1.008.336-1.344.944-1.344.336 0 .576.128.704.208l.272-1.072c-.128-.08-.544-.288-1.088-.288-1.136 0-2.128.672-2.128 2.352v1.536l-.928.176v.864h.928v6.624h1.296v-6.624zm5.936-3.264c0-.496-.336-.816-.768-.816s-.768.32-.768.816.336.816.768.816.768-.32.768-.816zm-2.464 0c0-.496-.336-.816-.768-.816s-.768.32-.768.816.336.816.768.816.768-.32.768-.816zm1.968 9.024h.032v.864h1.184v-7.68h-1.296v5.872c-.256.32-.768.848-1.552.848-.864 0-1.28-.512-1.28-1.776v-4.944h-1.296v5.04c0 2.08.848 2.832 2.208 2.832 1.168 0 1.856-.784 2-1.056zm6.7359-6.832c-.128-.048-.336-.128-.704-.128-.976 0-1.392.576-1.616 1.184h-.032v-1.04h-1.184v7.68h1.296v-5.632c.192-.512.624-1.04 1.44-1.04.352 0 .576.096.64.128zm6.336 7.696c3.376 0 5.472-1.744 5.472-5.792 0-3.792-1.712-5.248-5.312-5.248h-2.08v11.04zm.16-9.936c2.448 0 3.824 1.024 3.824 4.144 0 3.376-1.44 4.64-3.984 4.64h-.528v-8.784zm7.712.4c.512 0 .864-.384.864-.928 0-.528-.352-.912-.864-.912-.528 0-.88.384-.88.912 0 .544.352.928.88.928zm.64 1.856h-1.296v7.68h1.296zm5.632 2.384c0 1.104-.608 1.536-1.344 1.536-.704 0-1.328-.432-1.328-1.536s.624-1.536 1.36-1.536c.704 0 1.312.432 1.312 1.536zm1.888 5.888c0-1.456-1.088-2.032-2.544-2.032h-.976c-.56 0-.784-.224-.784-.544 0-.4.368-.608.624-.72.128.016.256.016.4.016 1.504 0 2.656-.976 2.656-2.608 0-.512-.128-.992-.368-1.376h.96l.176-1.008h-2.336c-.32-.128-.656-.192-1.024-.192-1.44 0-2.608.848-2.608 2.576 0 1.216.528 1.984 1.312 2.352v.032c-.192.096-.928.416-.928 1.248 0 .48.176.832.496 1.072v.032c-.352.192-1.28.736-1.28 1.872 0 1.328.88 2.08 2.512 2.08 2.272 0 3.712-1.152 3.712-2.8zm-3.616 1.696c-.912 0-1.36-.416-1.36-1.232 0-.768.416-1.136.784-1.344.176.032.384.048.592.048h.976c.784 0 1.296.288 1.296 1.024 0 .784-.72 1.504-2.288 1.504zm5.712-11.824c.512 0 .864-.384.864-.928 0-.528-.352-.912-.864-.912-.528 0-.88.384-.88.912 0 .544.352.928.88.928zm.64 1.856h-1.296v7.68h1.296zm5.4721 7.536-.176-1.04c-.1281.08-.4161.224-.8001.224-.656 0-.912-.32-.912-1.408v-4.256h1.6801l.16-1.056h-1.8401v-2.144h-1.152l-.144 2.144-.928.192v.864h.928v4.432c0 1.696.672 2.384 1.984 2.384.688 0 1.0881-.256 1.2001-.336zm4.416-4.176h-.4c-1.744 0-3.2.592-3.2 2.368 0 1.248.88 2.144 2.048 2.144.976 0 1.44-.656 1.616-1.04h.032c.016.384.032.624.048.848h1.232c-.032-.208-.096-.944-.096-1.6v-3.504c0-1.936-.832-2.768-2.4-2.768-1.232 0-1.968.592-2.304.928l.544.864c.288-.256.8-.688 1.568-.688.832 0 1.312.416 1.312 1.712zm0 .96v1.696c-.16.24-.528.752-1.28.752-.64 0-1.024-.4-1.024-1.184 0-.848.656-1.2 1.888-1.248zm4.512-8.096-1.296.144v9.632c0 1.36.592 1.824 1.456 1.824.576 0 .912-.144 1.04-.208l-.112-.96c-.08.032-.24.096-.48.096-.448 0-.608-.224-.608-.864zm4.864 4.64c.816 0 1.248.624 1.248 1.68 0 .24-.016.448-.032.56h-2.784c.064-1.44.656-2.24 1.568-2.24zm2.592 6.096-.48-.912c-.176.176-.704.672-1.616.672-1.296 0-2-.848-2.08-2.64h3.92c.048-.368.096-.832.096-1.488 0-1.84-.896-2.784-2.352-2.784-1.6 0-2.928 1.216-2.928 3.936 0 2.896 1.216 4.128 3.152 4.128 1.456 0 2.08-.688 2.288-.912zm5.44-6.336c-.256-.256-.768-.816-1.952-.816-1.248 0-2.224.848-2.224 1.984 0 1.056.576 1.68 1.536 2.288l.48.304c.736.464 1.12.72 1.12 1.456 0 .496-.416.88-1.184.88-.832 0-1.312-.496-1.552-.752l-.624 1.024c.304.32.928.88 2.16.88 1.568 0 2.448-.944 2.448-2.16 0-1.136-.64-1.76-1.68-2.384l-.48-.288c-.688-.416-1.008-.736-1.008-1.312 0-.448.368-.816 1.056-.816.72 0 1.168.448 1.344.64zm9.28 6.192h.032v.864h1.184v-7.68h-1.296v5.872c-.256.32-.768.848-1.552.848-.864 0-1.28-.512-1.28-1.776v-4.944h-1.296v5.04c0 2.08.848 2.832 2.208 2.832 1.168 0 1.856-.784 2-1.056zm6.064-5.904c.896 0 1.328.528 1.328 1.824v4.944h1.296v-5.04c0-2.08-.864-2.832-2.24-2.832-1.2 0-1.888.784-2.032 1.056h-.032v-.864h-1.184v7.68h1.296v-5.92c.256-.32.784-.848 1.568-.848zm7.248 5.808c-.896 0-1.696-.704-1.696-2.816 0-2.176.944-2.944 2.144-2.944.464 0 .768.128.992.272v4.736c-.176.256-.624.752-1.44.752zm1.52.144h.032v.816h1.184v-11.456l-1.296.144v3.68c-.24-.096-.592-.192-1.088-.192-1.632 0-3.392.992-3.392 4.096 0 2.8 1.232 3.92 2.688 3.92 1.216 0 1.728-.768 1.872-1.008z"/><path d="m59.2519 33.584c-.24-.192-.944-.832-2.416-.832-1.728 0-2.832 1.088-2.832 2.512 0 1.52.704 2.256 1.92 3.28l.896.752c.928.784 1.376 1.296 1.376 2.256 0 .752-.608 1.376-1.696 1.376-1.136 0-1.872-.704-2.144-.96l-.56 1.216c.32.288 1.152.992 2.736.992 1.984 0 3.072-1.136 3.072-2.816 0-1.44-.816-2.304-1.856-3.168l-.896-.736c-1.008-.816-1.472-1.36-1.472-2.224 0-.688.496-1.28 1.456-1.28 1.024 0 1.664.512 1.84.688zm5.264 10.256-.176-1.04c-.128.08-.416.224-.8.224-.656 0-.912-.32-.912-1.408v-4.256h1.68l.16-1.056h-1.84v-2.144h-1.152l-.144 2.144-.928.192v.864h.928v4.432c0 1.696.672 2.384 1.984 2.384.688 0 1.088-.256 1.2-.336zm4.4159-4.176h-.4c-1.744 0-3.2.592-3.2 2.368 0 1.248.88 2.144 2.048 2.144.976 0 1.44-.656 1.616-1.04h.032c.016.384.032.624.048.848h1.232c-.032-.208-.096-.944-.096-1.6v-3.504c0-1.936-.832-2.768-2.4-2.768-1.232 0-1.968.592-2.304.928l.544.864c.288-.256.8-.688 1.568-.688.832 0 1.312.416 1.312 1.712zm0 .96v1.696c-.16.24-.528.752-1.28.752-.64 0-1.024-.4-1.024-1.184 0-.848.656-1.2 1.888-1.248zm6.384-.96h-.4c-1.744 0-3.2.592-3.2 2.368 0 1.248.88 2.144 2.048 2.144.976 0 1.44-.656 1.616-1.04h.032c.016.384.032.624.048.848h1.232c-.032-.208-.096-.944-.096-1.6v-3.504c0-1.936-.832-2.768-2.4-2.768-1.232 0-1.968.592-2.304.928l.544.864c.288-.256.8-.688 1.568-.688.832 0 1.312.416 1.312 1.712zm0 .96v1.696c-.16.24-.528.752-1.28.752-.64 0-1.024-.4-1.024-1.184 0-.848.656-1.2 1.888-1.248zm6.72 3.216-.176-1.04c-.128.08-.416.224-.8.224-.656 0-.912-.32-.912-1.408v-4.256h1.68l.16-1.056h-1.84v-2.144h-1.152l-.144 2.144-.928.192v.864h.928v4.432c0 1.696.672 2.384 1.984 2.384.688 0 1.088-.256 1.2-.336zm5.136-6.912c-.256-.256-.768-.816-1.952-.816-1.248 0-2.224.848-2.224 1.984 0 1.056.576 1.68 1.536 2.288l.48.304c.736.464 1.12.72 1.12 1.456 0 .496-.416.88-1.184.88-.832 0-1.312-.496-1.552-.752l-.624 1.024c.304.32.928.88 2.16.88 1.568 0 2.448-.944 2.448-2.16 0-1.136-.64-1.76-1.68-2.384l-.48-.288c-.688-.416-1.008-.736-1.008-1.312 0-.448.368-.816 1.056-.816.72 0 1.168.448 1.344.64zm4.6079.336c.8 0 1.152.528 1.152 1.776v4.944h1.296v-5.152c0-.288-.016-.56-.064-.8.288-.336.768-.768 1.472-.768.864 0 1.328.528 1.328 1.776v4.944h1.296v-5.152c0-1.824-.8-2.72-2.336-2.72-.992 0-1.696.592-2.032 1.024-.352-.688-.992-1.024-1.856-1.024-1.056 0-1.712.704-1.92 1.056h-.032v-.864h-1.184v7.68h1.296v-5.92c.224-.272.72-.8 1.584-.8zm8.064 2.88c0 2.88 1.2963 4.032 2.9923 4.032 1.68 0 3.072-1.168 3.072-4.032 0-2.832-1.296-4.032-2.992-4.032-1.648 0-3.0723 1.2-3.0723 4.032zm4.7203 0c0 2.032-.624 2.88-1.68 2.88s-1.696-.848-1.696-2.88.624-2.928 1.68-2.928 1.696.896 1.696 2.928zm5.664 2.88c-.896 0-1.696-.704-1.696-2.816 0-2.176.944-2.944 2.144-2.944.464 0 .768.128.992.272v4.736c-.176.256-.624.752-1.44.752zm1.52.144h.032v.816h1.184v-11.456l-1.296.144v3.68c-.24-.096-.592-.192-1.088-.192-1.632 0-3.392.992-3.392 4.096 0 2.8 1.232 3.92 2.688 3.92 1.216 0 1.728-.768 1.872-1.008zm5.696-6c.816 0 1.248.624 1.248 1.68 0 .24-.016.448-.032.56h-2.784c.064-1.44.656-2.24 1.568-2.24zm2.592 6.096-.48-.912c-.176.176-.704.672-1.616.672-1.296 0-2-.848-2.08-2.64h3.92c.048-.368.096-.832.096-1.488 0-1.84-.896-2.784-2.352-2.784-1.6 0-2.928 1.216-2.928 3.936 0 2.896 1.216 4.128 3.152 4.128 1.456 0 2.08-.688 2.288-.912zm5.104-6.976c-.128-.048-.336-.128-.704-.128-.976 0-1.392.576-1.616 1.184h-.032v-1.04h-1.184v7.68h1.296v-5.632c.192-.512.624-1.04 1.44-1.04.352 0 .576.096.64.128zm3.984.928c.896 0 1.328.528 1.328 1.824v4.944h1.296v-5.04c0-2.08-.864-2.832-2.24-2.832-1.2 0-1.888.784-2.032 1.056h-.032v-.864h-1.184v7.68h1.296v-5.92c.256-.32.784-.848 1.568-.848zm5.216-2.768c.512 0 .864-.384.864-.928 0-.528-.352-.912-.864-.912-.528 0-.88.384-.88.912 0 .544.352.928.88.928zm.64 1.856h-1.296v7.68h1.296zm5.856.624c-.256-.256-.768-.816-1.952-.816-1.248 0-2.224.848-2.224 1.984 0 1.056.576 1.68 1.536 2.288l.48.304c.736.464 1.12.72 1.12 1.456 0 .496-.416.88-1.184.88-.832 0-1.312-.496-1.552-.752l-.624 1.024c.304.32.928.88 2.16.88 1.568 0 2.448-.944 2.448-2.16 0-1.136-.64-1.76-1.68-2.384l-.48-.288c-.688-.416-1.008-.736-1.008-1.312 0-.448.368-.816 1.056-.816.72 0 1.168.448 1.344.64zm2.384-2.48c.512 0 .864-.384.864-.928 0-.528-.352-.912-.864-.912-.528 0-.88.384-.88.912 0 .544.352.928.88.928zm.64 1.856h-1.296v7.68h1.296zm4.48.864c.816 0 1.248.624 1.248 1.68 0 .24-.016.448-.032.56h-2.784c.064-1.44.656-2.24 1.568-2.24zm2.592 6.096-.48-.912c-.176.176-.704.672-1.616.672-1.296 0-2-.848-2.08-2.64h3.92c.048-.368.096-.832.096-1.488 0-1.84-.896-2.784-2.352-2.784-1.6 0-2.928 1.216-2.928 3.936 0 2.896 1.216 4.128 3.152 4.128 1.456 0 2.08-.688 2.288-.912zm5.104-6.976c-.128-.048-.336-.128-.704-.128-.976 0-1.392.576-1.616 1.184h-.032v-1.04h-1.184v7.68h1.296v-5.632c.192-.512.624-1.04 1.44-1.04.352 0 .576.096.64.128zm5.28 6.832h.032v.864h1.184v-7.68h-1.296v5.872c-.256.32-.768.848-1.552.848-.864 0-1.28-.512-1.28-1.776v-4.944h-1.296v5.04c0 2.08.848 2.832 2.208 2.832 1.168 0 1.856-.784 2-1.056zm6.064-5.904c.896 0 1.328.528 1.328 1.824v4.944h1.296v-5.04c0-2.08-.864-2.832-2.24-2.832-1.2 0-1.888.784-2.032 1.056h-.032v-.864h-1.184v7.68h1.296v-5.92c.256-.32.784-.848 1.568-.848zm8.208 1.472c0 1.104-.608 1.536-1.344 1.536-.704 0-1.328-.432-1.328-1.536s.624-1.536 1.36-1.536c.704 0 1.312.432 1.312 1.536zm1.888 5.888c0-1.456-1.088-2.032-2.544-2.032h-.976c-.56 0-.784-.224-.784-.544 0-.4.368-.608.624-.72.128.016.256.016.4.016 1.504 0 2.656-.976 2.656-2.608 0-.512-.128-.992-.368-1.376h.96l.176-1.008h-2.336c-.32-.128-.656-.192-1.024-.192-1.44 0-2.608.848-2.608 2.576 0 1.216.528 1.984 1.312 2.352v.032c-.192.096-.928.416-.928 1.248 0 .48.176.832.496 1.072v.032c-.352.192-1.28.736-1.28 1.872 0 1.328.88 2.08 2.512 2.08 2.272 0 3.712-1.152 3.712-2.8zm-3.616 1.696c-.912 0-1.36-.416-1.36-1.232 0-.768.416-1.136.784-1.344.176.032.384.048.592.048h.976c.784 0 1.296.288 1.296 1.024 0 .784-.72 1.504-2.288 1.504z"/><path d="m18.8 11.06c.036-.2987.0573-.6067.0573-.9213 0-.17203.0014-.37203-.02-.5987 2.6574-.03733 4.988-1.952 4.988-4.15333 0-1.12-.7306-1.96534-1.1426-2.47067.092-.02.1853-.04133.28-.064.3893.33867 1.4933 1.54133 1.4933 3.06 0 2.64133-2.64 5.0933-5.656 5.148zm-2.6773-9.19867c-.0494-.29466-.1614-.56133-.332-.79066.0093-.269337.12-.52667.5533-.31467-.2347.24-.0533.66533-.0533.66533s.48-.22266.38-.539997c.712.170667.2 1.126667-.548.979997zm-.6174 1.356c-.0946-.39466-.2973-.8-.5546-1.10533-.2347-.27733-.6227-.60667-1.1454-.60667-.2386 0-.6386.112-.8933.22-.0947-.17333-.28-.59066-.28-.778663 0-.193334.3267-.389334.952-.389334 1.376 0 2.1973.621337 2.1973 1.663997 0 .36667-.1453.7-.276.996zm3.5334 17.73337c.16 0 .2373.0253.3306.06.396 1.0773 1.9227 3.1106 1.9867 3.1973l.0133.0187.0227-.0054c.3747-.06 1.3307-.204 2.1307-.204h.0186c.0867 0 .1854 0 .248.0614.052.052.0774.1426.0774.272 0 .1986-.084.5386-.1854.684-.28-.3054-.7346-.4427-1.4626-.4427-.2187 0-.4774.0653-.6174.1027l-.0573.012-.0653.0173.42.42c.648.648 1.208 1.2067 1.208 1.5787 0 .224-.2187.516-.4187.6453-.044-.6813-.732-1.5933-1.4027-2.104l-.0573-.0427-.0107.24c-.0093.1627-.024.4067-.024.668 0 1.2974-.132 1.4947-.5813 1.4947-.0693 0-.1747-.02-.24-.044.2533-.3133.3533-.7267.3533-1.452l-.004-.3347-.004-.2693c0-.2973.0307-.5173.0547-.6947l.0133-.1-.0706-.0093c-.2107-.0293-.6014-.0827-.9-.0827-.6414 0-1.076.0587-1.3907.3547-.208-.168-.4213-.4573-.4213-.64 0-.2707.168-.292.3893-.292.112 0 .216.016.36.0333.276.0414.6907.1027 1.5453.1027h.0534l-.0174-.052c-.216-.62-.8106-1.5213-1.764-2.68.0854-.3107.1694-.5133.4694-.5133zm-8.232 3.1933-.0174.052h.0534c.8533 0 1.2693-.0613 1.5453-.1027.144-.0173.248-.0333.36-.0333.22 0 .3893.0213.3893.292 0 .1827-.2133.472-.42.64-.316-.296-.7506-.3547-1.3906-.3547-.3 0-.692.0534-.9014.0827l-.0333.004-.0373.0053.012.1c.0253.1774.056.3974.056.6947l-.004.2693-.004.3347c0 .7253.1 1.1387.3546 1.452-.0666.024-.172.044-.2413.044-.4507 0-.58133-.1973-.58133-1.4947 0-.2613-.01334-.5053-.02267-.668l-.01333-.2413-.056.044c-.66934.5107-1.36 1.4227-1.40134 2.104-.20133-.1293-.42-.4213-.42-.6453 0-.372.56-.9307 1.208-1.5787l.372-.372.048-.048-.12266-.0293c-.14-.0374-.39867-.1027-.61867-.1027-.72667 0-1.18.1373-1.46133.4427-.10134-.1454-.18534-.4854-.18534-.684 0-.1294.02534-.22.07734-.272.06266-.0614.16133-.0614.248-.0614h.01866c.8 0 1.75734.144 2.13067.204l.02267.0054.01333-.0187c.06533-.0867 1.5907-2.12 1.988-3.1973.0907-.0347.1693-.06.3293-.06.3 0 .384.2026.4707.5133-.9547 1.1587-1.5493 2.06-1.7653 2.68zm-4.1227-18.232c0-1.51867 1.10533-2.72133 1.49467-3.06.09333.02267.18666.044.28.064-.41334.50533-1.144 1.35067-1.144 2.47067 0 2.224 2.376 4.15466 5.06663 4.15466-.0173.19067-.0266.39067-.0266.59737 0 .328.0186.6333.0506.9213-3.04263-.0187-5.7213-2.488-5.7213-5.148zm20.408 4.684c1.3653 2.1587 2.4333 2.1227 4.0467 2.1227-1.3347-1.0227-2.2174-2.3334-2.6387-3.0027l-2.4933-3.98933c-.2427-1.232-.88-2.384-1.8347-3.24134.3213-.12133.588-.24933.748-.37066-1.628 0-3.2413-.82667-4.1293-.82667-.5707 0-.9374.34133-.9374.792.036.50267.5534 1.01333 1.5094 1.01333.216 0 .4933-.028.7973-.07866.5173.72133.9347 1.37333.9347 2.304 0 1.74666-2.088 3.108-4.196 3.108-.12 0-.2334-.00534-.352-.01334-.1907-.43333-.8267-1.16-.8267-1.98666 0-1.388.9053-2.52134.9053-3.896 0-.85467-.416-1.384-.576-1.604003.2587-.24.5414-.534667.608-.737334-.1506.065334-.3293.073334-.5893.073334-1.0107 0-1.8347-.262667-2.6373-.262667-.4587 0-.5814.141333-.5814.276 0 .049333.0067.1.02.124-.1706-.066667-.3306-.110667-.5213-.145333-.2373-.045334-.492-.068-.764-.068-.976 0-1.3227.409333-1.3227.76 0 .296003.2334.837333.4987 1.250663.38-.192.8373-.32133 1.0453-.32133.5187 0 .9787.49333 1.2227 1.07733-.348.04267-.4147.05734-.7667.05734-.9506 0-1.5973-.34-1.7306-.34-.012 0-.0374.00666-.0374.028 0 .13333.2694.48533.8.67866.7.256 1.748.36267 1.9227.392 0 .03067-.1773.36134-.376.42534-.0413.01333-.0747.01466-.124.004-.7307-.144-.9347-.20534-1.8613-.55734-.028-.01066-.0454.00667-.0454.036 0 .36667.9494 1.176 1.8 1.48667-.7106.90667-1.5973 1.83467-2.016 3.24933-.1186.008-.2333.01334-.352.01334-2.108 0-4.19597-1.36134-4.19597-3.108 0-.93067.41734-1.58267.93467-2.304.304.05066.58.07866.79733.07866.95597 0 1.47337-.51066 1.51067-1.01333 0-.45067-.3667-.792-.9387-.792-.88797 0-2.49997.82667-4.13063.82667.16133.12133.428.24933.748.37066-.95334.85734-1.59067 2.00934-1.83334 3.24134l-2.49333 3.98933c-.42.6693-1.30533 1.98-2.64 3.0027 1.61333 0 2.68267.036 4.048-2.1227l1.27867-2.04533c.09466.26533.21066.524.348.77733l-2.54267 4.068c-.42267.6747-1.3 1.9733-2.64 3.0027 1.61333 0 2.68267.0373 4.048-2.12l2.188-3.504c.164.1746.336.3453.51733.508l-3.088 4.944c-.424.676-1.296 1.972-2.63866 3 1.61333 0 2.68266.0386 4.04666-2.12l3.01067-4.82c.19867.1253.40133.2466.612.3613l-3.676 5.8813c-.424.676-1.296 1.968-2.63867 3 1.61334 0 2.68267.0374 4.048-2.12l3.78397-6.0573c.224.0853.4507.168.6814.2413l-4.27603 6.844c-.41734.6667-1.30934 1.9827-2.63734 3 1.612 0 2.68267.0374 4.04667-2.12l4.5573-7.2933c.0467.008.092.0147.1374.024.124.3947.2106.7627.2106 1.1293 0 2.292-1.504 4.316-3.3093 5.8787.116.0507.3173.068.5027.068.3733 0 .6133-.02.7826-.0493-.4186.9506-1.3173 2.1786-1.77063 2.8133-.59067-.1067-1.45067-.1893-2.01334-.1893-.58933 0-.656.344-.656.652 0 .5346.25067.96.54134 1.1973.10933-.2733.32933-.6387 1.41733-.6387.02133 0 .05867.0027.10933.0067-.31733.3533-1.31333 1.1587-1.31333 1.8067 0 .4293.47067 1.0733 1.09067 1.0733-.036-.1387-.032-.2653-.032-.3613 0-.5254.46533-1.14.85866-1.5694-.012.128-.00533.1147-.00533.264 0 1.2414.112 1.812.9 1.812.3867 0 .6533-.212.7453-.276-.512-.4706-.5386-.8413-.5386-1.5373.0013-.1813.0026-.3587.0053-.6027.0013-.16-.0013-.3706-.0267-.5226.2814-.0387.396-.0387.6134-.0387 0 0 1.1186-.0893 1.3893.4933.304-.2786.7453-.672.7453-1.1053 0-.2867-.136-.6107-.7133-.6107-.2187 0-.9053.1334-1.48.1334.1547-.3427.8413-1.348 1.4373-2.0774.0907.2827.2307.588.5427.8387.044-.4693.3187-1.9533 1.052-2.8213.0853.5866.2 1.188.2 2.456 0 3.0853-.7413 5.364-2.316 5.7986.2053.356.6387.6774 1.088.6774.576 0 .8893-.652 1.2093-1.2667.1667.4533.6267 1.5653 1.088 1.5653.4614 0 .9227-1.112 1.0894-1.5653.3186.6147.6333 1.2667 1.2093 1.2667.4493 0 .8827-.3214 1.088-.6774-1.5747-.4346-2.3173-2.7133-2.3173-5.7986 0-1.268.1146-1.8694.2-2.456.7346.868 1.0106 2.352 1.052 2.8213.3133-.2507.4546-.556.544-.8387.5946.7294 1.2826 1.7347 1.4373 2.0774-.5747 0-1.2627-.1334-1.48-.1334-.576 0-.712.324-.712.6107 0 .4333.4413.8267.7453 1.1053.268-.5826 1.3894-.4933 1.3894-.4933.216 0 .3306 0 .6133.0387-.0267.152-.028.3626-.0267.5226.0027.244.0027.4214.004.6027 0 .696-.0266 1.0667-.5386 1.5373.092.064.3586.276.7453.276.788 0 .9013-.5706.9013-1.812 0-.1493.004-.136-.0066-.264.3933.4294.8586 1.044.8586 1.5694 0 .096.0054.2226-.0333.3613.6213 0 1.0933-.644 1.0933-1.0733 0-.648-.996-1.4534-1.316-1.8067.052-.004.0894-.0067.1094-.0067 1.0893 0 1.3093.3654 1.4186.6387.2907-.2373.5414-.6627.5414-1.1973 0-.308-.0667-.652-.656-.652-.5627 0-1.4214.0826-2.0134.1893-.4546-.6347-1.3506-1.8627-1.7706-2.8133.1693.0293.4106.0493.7826.0493.1867 0 .3867-.0173.5027-.068-1.8053-1.5627-3.3093-3.5867-3.3093-5.8787 0-.3666.0866-.7346.2106-1.1293.044-.0093.092-.016.1374-.024l4.5573 7.2933c1.364 2.1574 2.4347 2.12 4.0467 2.12-1.328-1.0173-2.22-2.3333-2.6374-3l-4.2773-6.844c.232-.0733.46-.156.684-.2413l3.7827 6.0573c1.3653 2.1574 2.4346 2.12 4.048 2.12-1.3427-1.032-2.2147-2.324-2.6387-3l-3.6747-5.8813c.208-.1147.412-.236.6094-.3613l3.012 4.82c1.3653 2.1586 2.4333 2.12 4.0466 2.12-1.3426-1.028-2.2133-2.324-2.6386-3l-3.088-4.944c.1813-.1627.3546-.3334.516-.508l2.1906 3.504c1.364 2.1573 2.4334 2.12 4.0467 2.12-1.3413-1.0294-2.216-2.328-2.64-3.0027l-2.5413-4.068c.136-.25333.252-.512.348-.77733z"/></g></svg>