<svg width="54" height="36" viewBox="0 0 54 36" fill="none" xmlns="http://www.w3.org/2000/svg">
<g clip-path="url(#clip0_2384_3)">
<path d="M33.3344 13.0381C35.0133 15.6949 36.3283 15.6495 38.3135 15.6495C36.6705 14.3902 35.5843 12.7786 35.0664 11.9557L31.9988 7.04714C31.6989 5.53032 30.9153 4.11341 29.7413 3.05921C30.136 2.90927 30.4641 2.75226 30.6621 2.60298C28.6589 2.60298 26.6736 1.58538 25.581 1.58538C24.8787 1.58538 24.4269 2.00501 24.4269 2.56C24.4723 3.17781 25.108 3.80778 26.284 3.80778C26.5512 3.80778 26.8914 3.7725 27.2658 3.71033C27.9028 4.59785 28.416 5.40022 28.416 6.54464C28.416 8.69404 25.8463 10.3685 23.2523 10.3685C23.1055 10.3685 22.9665 10.3633 22.8197 10.3518C22.5846 9.81992 21.8034 8.92404 21.8034 7.90774C21.8034 6.19997 22.9171 4.80553 22.9171 3.11367C22.9171 2.06276 22.4045 1.4123 22.2071 1.14195C22.5255 0.845835 22.8741 0.482455 22.9549 0.233753C22.7703 0.313318 22.5511 0.324144 22.2301 0.324144C20.9869 0.324144 19.9737 -1.04952e-05 18.985 -1.04952e-05C18.4223 -1.04952e-05 18.2699 0.174859 18.2699 0.340878C18.2699 0.400429 18.2794 0.463266 18.2955 0.493287C18.0853 0.410113 17.888 0.357448 17.6534 0.313318C17.3625 0.258197 17.0479 0.229986 16.7132 0.229986C15.513 0.229986 15.0863 0.733624 15.0863 1.16491C15.0863 1.53026 15.3734 2.19663 15.6995 2.70354C16.1679 2.46895 16.7293 2.30884 16.9868 2.30884C17.6232 2.30884 18.1903 2.91566 18.4909 3.63536C18.0622 3.68654 17.9802 3.70573 17.5471 3.70573C16.3782 3.70573 15.5829 3.28675 15.4182 3.28675C15.4021 3.28675 15.3714 3.29511 15.3714 3.3207C15.3714 3.48475 15.7026 3.91786 16.3564 4.15639C17.217 4.47153 18.5069 4.60293 18.7217 4.6382C18.7217 4.67593 18.5032 5.0836 18.2596 5.1612C18.2077 5.17776 18.1674 5.17973 18.1076 5.16759C17.208 4.99009 16.9575 4.91447 15.8168 4.47989C15.7816 4.4671 15.761 4.48892 15.761 4.52599C15.761 4.97664 16.9293 5.97243 17.9751 6.35368C17.1017 7.47005 16.0096 8.61136 15.4951 10.3518C15.3496 10.3633 15.2087 10.3685 15.0619 10.3685C12.4684 10.3685 9.89819 8.69404 9.89819 6.54464C9.89819 5.40022 10.4127 4.59785 11.0497 3.71033C11.4232 3.7725 11.7636 3.80778 12.0302 3.80778C13.2061 3.80778 13.8423 3.17781 13.8892 2.56C13.8892 2.00501 13.4374 1.58538 12.7332 1.58538C11.6406 1.58538 9.6572 2.60298 7.652 2.60298C7.85001 2.75226 8.17877 2.90927 8.57282 3.05921C7.39887 4.11341 6.6152 5.53032 6.31531 7.04714L3.24821 11.9557C2.73178 12.7786 1.64232 14.3902 0 15.6495C1.98518 15.6495 3.30153 15.6949 4.98108 13.0381L6.55368 10.5216C6.67032 10.8484 6.81387 11.1663 6.98169 11.4777L3.85389 16.4825C3.33352 17.3131 2.25505 18.912 0.605511 20.1776C2.59086 20.1776 3.90639 20.2237 5.58529 17.5687L8.27868 13.2579C8.47997 13.4727 8.69209 13.6828 8.91569 13.8828L5.11561 19.9662C4.59343 20.7972 3.5207 22.3917 1.86789 23.6573C3.85323 23.6573 5.16876 23.7054 6.84848 21.0484L10.5524 15.1183C10.7965 15.2713 11.0465 15.4219 11.3041 15.5637L6.78237 22.7978C6.26085 23.6309 5.18746 25.2209 3.53596 26.489C5.52065 26.489 6.83683 26.5358 8.5159 23.8816L13.1715 16.4281C13.4469 16.5345 13.7263 16.6351 14.011 16.7268L8.74983 25.1472C8.23586 25.9675 7.13803 27.5849 5.50392 28.8384C7.48795 28.8384 8.8043 28.8825 10.4832 26.2295L16.0905 17.2547C16.1474 17.2651 16.2045 17.2739 16.2596 17.2856C16.4122 17.7713 16.5191 18.2231 16.5191 18.6749C16.5191 21.4938 14.6685 23.9854 12.4474 25.9078C12.589 25.9699 12.837 25.9911 13.0657 25.9911C13.5239 25.9911 13.8207 25.9675 14.0275 25.9302C13.5131 27.0998 12.4082 28.6102 11.8501 29.3927C11.122 29.2613 10.0647 29.1588 9.37191 29.1588C8.6473 29.1588 8.56528 29.583 8.56528 29.961C8.56528 30.6191 8.87287 31.1433 9.23231 31.435C9.36552 31.0985 9.63669 30.6487 10.976 30.6487C11.0016 30.6487 11.0477 30.6511 11.1105 30.6564C10.7184 31.0921 9.49315 32.0822 9.49315 32.8799C9.49315 33.4087 10.0731 34.2001 10.8362 34.2001C10.7908 34.0303 10.7972 33.8733 10.7972 33.756C10.7972 33.1094 11.3687 32.3527 11.8532 31.8259C11.8386 31.9829 11.8456 31.9668 11.8456 32.1494C11.8456 33.6779 11.9839 34.3795 12.9536 34.3795C13.4297 34.3795 13.7578 34.118 13.8705 34.0399C13.2407 33.46 13.2079 33.0049 13.2079 32.1476C13.2099 31.9252 13.2105 31.7073 13.2137 31.4061C13.2163 31.2107 13.2132 30.9512 13.181 30.7634C13.5283 30.7153 13.6687 30.7153 13.936 30.7153C13.936 30.7153 15.313 30.607 15.6451 31.3228C16.0193 30.9799 16.5621 30.4961 16.5621 29.9623C16.5621 29.6106 16.3948 29.2113 15.6854 29.2113C15.4169 29.2113 14.5717 29.3766 13.8641 29.3766C14.0539 28.9537 14.9004 27.7169 15.6329 26.8191C15.7437 27.167 15.9167 27.5432 16.3013 27.8508C16.3538 27.274 16.6927 25.4484 17.595 24.3814C17.6995 25.1016 17.8411 25.8418 17.8411 27.4029C17.8411 31.1978 16.9293 34.0014 14.9913 34.5365C15.2438 34.9755 15.7765 35.3696 16.3301 35.3696C17.0382 35.3696 17.4245 34.5685 17.8181 33.8124C18.0232 34.3699 18.5896 35.738 19.1567 35.738C19.7239 35.738 20.291 34.3699 20.4961 33.8124C20.8896 34.5685 21.2753 35.3696 21.984 35.3696C22.5377 35.3696 23.0715 34.9755 23.3233 34.5365C21.3862 34.0014 20.4729 31.1978 20.4729 27.4029C20.4729 25.8418 20.614 25.1016 20.7185 24.3814C21.6213 25.4484 21.961 27.274 22.0129 27.8508C22.3981 27.5432 22.5716 27.167 22.6819 26.8191C23.4144 27.7169 24.2602 28.9537 24.4507 29.3766C23.7425 29.3766 22.8979 29.2113 22.6294 29.2113C21.9207 29.2113 21.7527 29.6106 21.7527 29.9623C21.7527 30.4961 22.2962 30.9799 22.6697 31.3228C23.0011 30.607 24.3795 30.7153 24.3795 30.7153C24.6461 30.7153 24.7863 30.7153 25.1344 30.7634C25.1016 30.9512 25.0998 31.2107 25.101 31.4061C25.1043 31.7073 25.1056 31.9252 25.1062 32.1476C25.1062 33.0049 25.0741 33.46 24.4441 34.0399C24.5576 34.118 24.8857 34.3795 25.3605 34.3795C26.3307 34.3795 26.4692 33.6779 26.4692 32.1494C26.4692 31.9668 26.4749 31.9829 26.4621 31.8259C26.9454 32.3527 27.5183 33.1094 27.5183 33.756C27.5183 33.8733 27.5247 34.0303 27.4779 34.2001C28.2424 34.2001 28.8223 33.4087 28.8223 32.8799C28.8223 32.0822 27.5964 31.0921 27.2043 30.6564C27.2676 30.6511 27.3132 30.6487 27.3381 30.6487C28.6788 30.6487 28.9486 31.0985 29.0832 31.435C29.4413 31.1433 29.7489 30.6191 29.7489 29.961C29.7489 29.583 29.6675 29.1588 28.9427 29.1588C28.2501 29.1588 27.1926 29.2613 26.4647 29.3927C25.9066 28.6102 24.8024 27.0998 24.2866 25.9302C24.4942 25.9675 24.7916 25.9911 25.2485 25.9911C25.4785 25.9911 25.7252 25.9699 25.8674 25.9078C23.6463 23.9854 21.7957 21.4938 21.7957 18.6749C21.7957 18.2231 21.9026 17.7713 22.0545 17.2856C22.1103 17.2739 22.1679 17.2651 22.2243 17.2547L27.8309 26.2295C29.5098 28.8825 30.8269 28.8384 32.8102 28.8384C31.1761 27.5849 30.0789 25.9675 29.5663 25.1472L24.3032 16.7268C24.5883 16.6351 24.8679 16.5345 25.1433 16.4281L29.7989 23.8816C31.4778 26.5358 32.7935 26.489 34.7793 26.489C33.1267 25.2209 32.054 23.6309 31.5324 22.7978L27.0107 15.5637C27.2676 15.4219 27.5189 15.2713 27.7611 15.1183L31.467 21.0484C33.1465 23.7054 34.4616 23.6573 36.4456 23.6573C34.7941 22.3917 33.722 20.7972 33.1992 19.9662L29.3998 13.8828C29.6234 13.6828 29.8362 13.4727 30.0355 13.2579L32.7294 17.5687C34.4084 20.2237 35.7233 20.1776 37.7093 20.1776C36.0584 18.912 34.9826 17.3131 34.4616 16.4825L31.3331 11.4777C31.5016 11.1663 31.6445 10.8484 31.7618 10.5216L33.3344 13.0381V13.0381ZM8.22421 7.27517C8.22421 5.40531 9.58354 3.92557 10.0627 3.50904C10.1782 3.53726 10.2929 3.56482 10.4069 3.58861C9.89819 4.20954 9.00034 5.25011 9.00034 6.62863C9.00034 9.36435 11.9244 11.7411 15.2343 11.7411C15.2131 11.9751 15.2016 12.2218 15.2016 12.4749C15.2016 12.8785 15.2233 13.2547 15.2638 13.6092C11.5207 13.5867 8.22421 10.5478 8.22421 7.27517V7.27517ZM13.2963 29.7067L13.2752 29.77H13.3406C14.3916 29.77 14.9029 29.695 15.242 29.6458C15.4202 29.6234 15.547 29.6042 15.6854 29.6042C15.9564 29.6042 16.1648 29.6298 16.1648 29.9623C16.1648 30.1885 15.9013 30.5442 15.6469 30.7512C15.2586 30.3852 14.7229 30.3135 13.936 30.3135C13.5675 30.3135 13.0855 30.3788 12.8267 30.4161L12.7863 30.4205L12.7409 30.4269L12.7555 30.5506C12.7863 30.7684 12.8235 31.0396 12.8235 31.4041L12.819 31.7362L12.8152 32.1476C12.8152 33.0402 12.9376 33.5496 13.2496 33.9341C13.1689 33.965 13.0381 33.9886 12.9536 33.9886C12.4 33.9886 12.239 33.7471 12.239 32.1494C12.239 31.829 12.2218 31.5278 12.2102 31.3274L12.1949 31.0312L12.1244 31.0857C11.3008 31.7137 10.4524 32.8352 10.4018 33.6746C10.1531 33.5145 9.88457 33.1555 9.88457 32.8799C9.88457 32.4217 10.5729 31.7349 11.3701 30.9382L11.8289 30.48L11.8867 30.4205L11.7361 30.3841C11.565 30.3391 11.2464 30.2591 10.976 30.2591C10.0814 30.2591 9.52251 30.4269 9.17653 30.8037C9.05349 30.6242 8.94899 30.2064 8.94899 29.961C8.94899 29.8028 8.98049 29.69 9.04381 29.6258C9.12207 29.5508 9.24313 29.5508 9.3496 29.5508H9.37191C10.3562 29.5508 11.5341 29.7284 11.9943 29.8028L12.0212 29.8092L12.0384 29.7868C12.118 29.6791 13.9955 27.1785 14.4839 25.8522C14.5953 25.8105 14.6934 25.7777 14.8888 25.7777C15.2586 25.7777 15.3611 26.0283 15.4682 26.4089C14.2934 27.8347 13.5629 28.9434 13.2963 29.7067V29.7067ZM23.4254 25.7777C23.6221 25.7777 23.7182 25.8105 23.8315 25.8522C24.3193 27.1785 26.1968 29.6791 26.2757 29.7868L26.293 29.8092L26.3212 29.8028C26.7813 29.7284 27.9578 29.5508 28.9427 29.5508H28.9645C29.0717 29.5508 29.1927 29.5508 29.2702 29.6258C29.3337 29.69 29.3656 29.8028 29.3656 29.961C29.3656 30.2064 29.262 30.6242 29.1376 30.8037C28.7921 30.4269 28.2334 30.2591 27.3381 30.2591C27.0684 30.2591 26.7505 30.3391 26.5781 30.3841L26.5077 30.4L26.4268 30.4205L26.9447 30.9382C27.7412 31.7349 28.4307 32.4217 28.4307 32.8799C28.4307 33.1555 28.1623 33.5145 27.9143 33.6746C27.8618 32.8352 27.014 31.7137 26.1898 31.0857L26.1192 31.0332L26.1058 31.3274C26.0937 31.5278 26.0764 31.829 26.0764 32.1494C26.0764 33.7471 25.9142 33.9886 25.3605 33.9886C25.276 33.9886 25.1459 33.965 25.0652 33.9341C25.3766 33.5496 25.5003 33.0402 25.5003 32.1476L25.4952 31.7362L25.4913 31.4041C25.4913 31.0396 25.5292 30.7684 25.5585 30.5506L25.5746 30.4269L25.4875 30.4161C25.2286 30.3788 24.7473 30.3135 24.3795 30.3135C23.5912 30.3135 23.0562 30.3852 22.6684 30.7512C22.4128 30.5442 22.15 30.1885 22.15 29.9623C22.15 29.6298 22.3577 29.6042 22.6294 29.6042C22.7672 29.6042 22.8953 29.6234 23.0728 29.6458C23.4119 29.695 23.9233 29.77 24.9742 29.77H25.0388L25.0183 29.7067C24.7517 28.9434 24.0205 27.8347 22.8472 26.4089C22.9531 26.0283 23.0562 25.7777 23.4254 25.7777V25.7777ZM19.0773 3.95886C18.9607 3.47311 18.712 2.9739 18.3947 2.59838C18.1065 2.25814 17.6291 1.85376 16.9868 1.85376C16.6927 1.85376 16.2005 1.99025 15.8879 2.12297C15.7699 1.9102 15.5419 1.39623 15.5419 1.16491C15.5419 0.926548 15.945 0.68556 16.7132 0.68556C18.4064 0.68556 19.4182 1.45134 19.4182 2.73438C19.4182 3.18421 19.2394 3.595 19.0773 3.95886V3.95886ZM19.8372 2.2903C19.7764 1.92808 19.6387 1.59997 19.4291 1.31879C19.4394 0.986748 19.5759 0.670298 20.1091 0.930975C19.8207 1.22643 20.0436 1.74877 20.0436 1.74877C20.0436 1.74877 20.6339 1.47513 20.5121 1.08551C21.3875 1.29501 20.7582 2.47092 19.8372 2.2903V2.2903ZM23.1317 13.6092C23.1767 13.2419 23.2016 12.8626 23.2016 12.4749C23.2016 12.2633 23.2036 12.0179 23.178 11.7392C26.4469 11.6924 29.3145 9.33794 29.3145 6.62863C29.3145 5.25011 28.416 4.20954 27.9079 3.58861C28.0226 3.56482 28.1372 3.53726 28.2526 3.50904C28.7313 3.92557 30.0904 5.40531 30.0904 7.27517C30.0904 10.5249 26.8422 13.5418 23.1317 13.6092" fill="white"/>
<path d="M48 12H54V0H48V12Z" fill="white"/>
<path fill-rule="evenodd" clip-rule="evenodd" d="M51.4286 22.0403H54V24.0403H48V22.0403H51.4286Z" fill="white"/>
<path fill-rule="evenodd" clip-rule="evenodd" d="M51.4286 18.0403H54V20.0403H48V18.0403H51.4286Z" fill="white"/>
<path fill-rule="evenodd" clip-rule="evenodd" d="M51.4286 14.0403H54V16.0403H48V14.0403H51.4286Z" fill="white"/>
<path fill-rule="evenodd" clip-rule="evenodd" d="M51.4286 33.0403H54V33.6403H48V33.0403H51.4286Z" fill="white"/>
<path fill-rule="evenodd" clip-rule="evenodd" d="M51.4286 29.8403H54V30.4403H48V29.8403H51.4286Z" fill="white"/>
<path fill-rule="evenodd" clip-rule="evenodd" d="M51.4286 26.6403H54V27.2403H48V26.6403H51.4286Z" fill="white"/>
</g>
<defs>
<clipPath id="clip0_2384_3">
<rect width="54" height="36" fill="white"/>
</clipPath>
</defs>
</svg>
