<svg width="530" height="328" viewBox="0 0 530 328" fill="none" xmlns="http://www.w3.org/2000/svg">
<rect x="108.622" y="48.6927" width="332.421" height="217.244" rx="20" fill="white"/>
<rect x="128.286" y="64.6114" width="293.092" height="157.315" rx="20" fill="#ECEEF6"/>
<rect y="201.325" width="138.587" height="126.413" rx="10" fill="#BCBBDE"/>
<rect x="33.7739" y="176.106" width="134.714" height="124.413" rx="9" fill="white" stroke="#E3E6F2" stroke-width="2"/>
<rect x="373.622" y="180.724" width="126.413" height="126.413" rx="10" fill="#9A99CE"/>
<ellipse cx="268.277" cy="142.332" rx="49.1608" ry="49.629" fill="#36349D"/>
<path d="M268.278 139.055C274.917 139.055 280.295 133.677 280.295 127.038C280.295 120.399 274.917 115.021 268.278 115.021C261.638 115.021 256.26 120.399 256.26 127.038C256.26 133.677 261.638 139.055 268.278 139.055ZM268.278 145.064C260.256 145.064 244.243 149.089 244.243 157.081V163.089H292.312V157.081C292.312 149.089 276.299 145.064 268.278 145.064Z" fill="#F6F7FB"/>
<path d="M436.829 245.804C443.468 245.804 448.846 240.426 448.846 233.787C448.846 227.148 443.468 221.77 436.829 221.77C430.189 221.77 424.812 227.148 424.812 233.787C424.812 240.426 430.189 245.804 436.829 245.804ZM436.829 251.813C428.807 251.813 412.795 255.838 412.795 263.83V269.838H460.863V263.83C460.863 255.838 444.85 251.813 436.829 251.813Z" fill="#F6F7FB"/>
<path d="M131.876 208.894H78.8135C75.1654 208.894 72.1807 211.879 72.1807 215.527V275.222L85.4463 261.957H131.876C135.524 261.957 138.509 258.972 138.509 255.324V215.527C138.509 211.879 135.524 208.894 131.876 208.894ZM131.876 255.324H82.6937L78.8135 259.204V215.527H131.876V255.324ZM88.7627 232.109H95.3955V238.742H88.7627V232.109ZM115.294 232.109H121.927V238.742H115.294V232.109ZM102.028 232.109H108.661V238.742H102.028V232.109Z" fill="#9A99CE"/>
<rect x="350.276" y="1" width="178.724" height="124.413" rx="9" fill="#D7D6EB" stroke="#D7D6EB" stroke-width="2"/>
<path d="M274.13 191.962V235.654C274.13 238.416 276.368 240.654 279.13 240.654H375.261" stroke="#36349D" stroke-width="2" stroke-dasharray="10 10"/>
<path d="M226.374 115.177H89.978C87.2166 115.177 84.978 117.415 84.978 120.177V175.106" stroke="#36349D" stroke-width="2" stroke-dasharray="10 10"/>
<line x1="381.113" y1="32.4556" x2="500.035" y2="32.4556" stroke="#7978BE" stroke-width="10"/>
<line x1="380.177" y1="60.5477" x2="499.099" y2="60.5477" stroke="#7978BE" stroke-width="10"/>
<line x1="380.177" y1="88.6398" x2="450.406" y2="88.6398" stroke="#7978BE" stroke-width="10"/>
</svg>
